<svg width="512" height="512" viewBox="0 0 512 512"
     xmlns="http://www.w3.org/2000/svg">
  <!-- =========================
       BACKGROUND
       ========================= -->
  <rect
    width="512"
    height="512"
    rx="116"
    fill="#0A0F1E"
  />
  <!-- =========================
       MAIN W / OPEN PATH
       ========================= -->
  <path
    d="M108 164
       L151 164
       L188 306
       C191 318 207 320 212 308
       L256 207
       L300 308
       C305 320 321 318 324 306
       L361 164"
    fill="none"
    stroke="#FFFFFF"
    stroke-width="42"
    stroke-linecap="round"
    stroke-linejoin="round"
  />
  <!-- =========================
       EUROPEAN JOURNEY / PATH
       ========================= -->
  <path
    d="M300 143
       C323 119 352 108 380 116
       C401 122 417 138 424 158"
    fill="none"
    stroke="#10B981"
    stroke-width="16"
    stroke-linecap="round"
  />
  <!-- Destination point -->
  <circle
    cx="424"
    cy="158"
    r="9"
    fill="#10B981"
  />
  <!-- =========================
       SUBTLE EUROPEAN STARS
       ========================= -->
  <g fill="#10B981" opacity="0.95">
    <path
      d="M363 82
         L366 90
         L375 90
         L368 95
         L371 103
         L363 98
         L356 103
         L358 95
         L351 90
         L360 90 Z"
    />
    <path
      d="M391 76
         L394 83
         L402 83
         L396 88
         L398 95
         L391 91
         L384 95
         L386 88
         L380 83
         L388 83 Z"
    />
    <path
      d="M417 86
         L420 93
         L428 93
         L422 98
         L424 105
         L417 101
         L410 105
         L412 98
         L406 93
         L414 93 Z"
    />
  </g>
  <!-- =========================
       BRAND NAME
       ========================= -->
  <text
    x="256"
    y="414"
    text-anchor="middle"
    font-family="Inter, Arial, Helvetica, sans-serif"
    font-size="42"
    font-weight="700"
    letter-spacing="-1"
    fill="#FFFFFF">
    Waapply
  </text>
  <!-- =========================
       ARABIC SLOGAN
       ========================= -->
  <text
    x="256"
    y="450"
    text-anchor="middle"
    font-family="Arial, Tahoma, sans-serif"
    font-size="18"
    font-weight="600"
    fill="#D9E4F2"
    direction="rtl"
    unicode-bidi="plaintext">
    قدّم أكثر، قرّب أكثر
  </text>
</svg>